<svg xmlns="http://www.w3.org/2000/svg" width="16" height="16"><path style="stroke:none;fill-rule:nonzero;fill:#f7cf52;fill-opacity:1" d="M15.277 4.89a3.401 3.401 0 0 0-.468-.167 4.066 4.066 0 0 0-.66-.141 4.353 4.353 0 0 0-.317-.035 5.254 5.254 0 0 0-.176-.98 3.824 3.824 0 0 0-.172-.465c-.05-.114-.09-.18-.09-.18s-.039.066-.09.18c-.054.109-.117.273-.171.464-.059.196-.11.418-.14.66-.016.106-.028.212-.036.32-.11.009-.215.02-.32.032a5.213 5.213 0 0 0-.66.14 2.95 2.95 0 0 0-.262.09c-.07.024-.137.055-.203.083-.114.05-.18.093-.18.093s.066.04.18.09a3.168 3.168 0 0 0 .465.172 5.214 5.214 0 0 0 .66.14c.105.016.21.028.32.036.008.105.02.215.031.316.02.117.04.235.063.352.023.11.05.215.078.308.027.09.059.18.09.266.023.07.054.137.082.203.054.113.094.176.094.176s.039-.063.09-.176a3.168 3.168 0 0 0 .171-.469c.028-.093.059-.199.078-.308.028-.117.047-.235.063-.352.015-.101.027-.21.035-.316.11-.012.215-.02.32-.035.239-.035.465-.086.657-.14.195-.06.355-.122.468-.173.114-.05.176-.09.176-.09s-.062-.039-.176-.093ZM12.61 9.673c-.015-.016-.043-.035-.074-.059a1.555 1.555 0 0 0-.265-.152 1.86 1.86 0 0 0-.38-.121c-.019-.008-.042-.012-.062-.016l-.012-.062a2.153 2.153 0 0 0-.125-.38 1.555 1.555 0 0 0-.152-.265c-.023-.031-.043-.058-.059-.074-.011-.02-.02-.027-.02-.027s-.01.007-.023.027c-.015.016-.035.043-.058.074a1.555 1.555 0 0 0-.152.266c-.055.12-.094.25-.125.379l-.012.062-.063.012c-.066.016-.132.035-.199.055a1.779 1.779 0 0 0-.328.148c-.04.024-.078.047-.117.074-.031.024-.059.043-.074.059-.02.012-.028.023-.028.023s.008.008.028.02c.015.015.043.039.074.058a1.944 1.944 0 0 0 .265.153c.055.023.118.05.18.07.063.02.129.04.2.055l.062.011.012.063c.015.066.035.133.054.2.02.062.047.124.07.179a1.779 1.779 0 0 0 .211.34.09.09 0 0 0 .024.027s.008-.008.02-.027a1.19 1.19 0 0 0 .133-.191c.027-.048.054-.098.077-.15.024-.054.051-.116.07-.179.02-.062.04-.129.055-.199l.012-.063.063-.011c.129-.031.257-.07.379-.125a1.555 1.555 0 0 0 .34-.211c.019-.012.027-.02.027-.02s-.008-.011-.028-.023ZM3 2.016c-.02-.016-.047-.04-.078-.063a1.964 1.964 0 0 0-.68-.289l-.07-.012-.012-.07a1.884 1.884 0 0 0-.29-.676.536.536 0 0 0-.061-.078c-.012-.02-.024-.031-.024-.031l-.023.031c-.012.016-.035.043-.059.078a1.953 1.953 0 0 0-.293.676l-.012.07a2.229 2.229 0 0 0-.066.012c-.07.016-.14.035-.21.055-.067.023-.13.05-.188.074-.055.027-.106.055-.16.082a2.11 2.11 0 0 0-.122.078.536.536 0 0 0-.078.063c-.02.015-.027.023-.027.023s.008.012.027.023c.016.016.043.04.078.063a1.553 1.553 0 0 0 .281.16c.06.024.122.05.188.074.067.02.137.04.211.055l.066.012.012.07c.016.07.035.14.059.207.02.067.047.133.074.188.023.054.05.109.078.16.027.043.05.082.082.12.02.036.047.063.059.083a.202.202 0 0 1 .023.027l.028-.027c.011-.02.035-.047.058-.082.027-.04.055-.078.078-.121.031-.051.059-.106.082-.16.028-.055.051-.121.074-.188.024-.066.043-.137.055-.207a.454.454 0 0 0 .016-.07l.066-.012a2.37 2.37 0 0 0 .399-.129c.113-.055.21-.113.28-.16.032-.023.06-.047.079-.063.016-.015.027-.023.027-.023S3.016 2.031 3 2.016Zm0 0"/><path style="stroke:none;fill-rule:nonzero;fill:#f7cf52;fill-opacity:1" d="M10.816 0c.895 0 1.754.148 2.555.418a8.002 8.002 0 0 0 0 15.164A8 8 0 1 1 10.816 0Zm0 0"/><path style="stroke:none;fill-rule:nonzero;fill:#e2bc50;fill-opacity:1" d="M10.816 0c.246 0 .485.012.723.031a8.003 8.003 0 0 0 .004 15.938A8 8 0 1 1 10.816 0Zm0 0"/></svg>