<svg xmlns="http://www.w3.org/2000/svg" width="25" height="25"><path style="stroke:none;fill-rule:nonzero;fill:#1d1d1b;fill-opacity:1" d="M12.5 7.031A5.475 5.475 0 0 0 7.031 12.5a5.475 5.475 0 0 0 5.469 5.469 5.475 5.475 0 0 0 5.469-5.469A5.475 5.475 0 0 0 12.5 7.031Zm0 9.375A3.908 3.908 0 0 1 8.594 12.5 3.908 3.908 0 0 1 12.5 8.594a3.908 3.908 0 0 1 3.906 3.906 3.908 3.908 0 0 1-3.906 3.906Zm0-10.937c.43 0 .781-.352.781-.782V3.125a.784.784 0 0 0-.781-.781.784.784 0 0 0-.781.781v1.563c0 .43.351.78.781.78Zm0 14.062a.784.784 0 0 0-.781.782v1.562c0 .43.351.781.781.781.43 0 .781-.351.781-.781v-1.563a.784.784 0 0 0-.781-.78Zm6.074-12.004 1.106-1.105a.783.783 0 0 0-1.106-1.106l-1.101 1.106a.783.783 0 0 0 0 1.105.778.778 0 0 0 1.101 0ZM6.426 17.473 5.32 18.578a.783.783 0 0 0 1.106 1.106l1.101-1.106a.783.783 0 0 0 0-1.105.778.778 0 0 0-1.101 0ZM5.469 12.5a.784.784 0 0 0-.782-.781H3.125a.784.784 0 0 0-.781.781c0 .43.351.781.781.781h1.563c.43 0 .78-.351.78-.781Zm16.406-.781h-1.563a.784.784 0 0 0-.78.781c0 .43.35.781.78.781h1.563c.43 0 .781-.351.781-.781a.784.784 0 0 0-.781-.781ZM6.422 7.527a.783.783 0 0 0 1.105-1.105L6.422 5.316a.783.783 0 0 0-1.106 1.106Zm12.156 9.946a.783.783 0 0 0-1.105 0 .778.778 0 0 0 0 1.101l1.105 1.106a.783.783 0 0 0 1.106-1.106Zm0 0"/></svg>